<svg height="512pt" viewBox="-13 0 511 512" width="512pt" xmlns="http://www.w3.org/2000/svg"><path d="m135.5625 124.011719h-55.265625c-33.824219 0-61.246094-27.417969-61.246094-61.242188v-55.269531h55.269531c33.824219 0 61.242188 27.421875 61.242188 61.246094zm0 0" fill="#fc9842"/><path d="m351.378906 124.011719h55.265625c33.828125 0 61.246094-27.417969 61.246094-61.242188v-55.269531h-55.269531c-33.824219 0-61.242188 27.421875-61.242188 61.246094zm0 0" fill="#fc9842"/><path d="m442.765625 7.5v55.269531c0 33.824219-27.421875 61.242188-61.246094 61.242188h25.125c33.824219 0 61.246094-27.417969 61.246094-61.242188v-55.269531zm0 0" fill="#fb8723"/><path d="m340.492188 51.453125c-64.703126-8.585937-129.40625-8.582031-194.109376.015625-49.402343 6.558594-88.378906 45.539062-94.941406 94.9375-8.59375 64.703125-8.597656 129.40625-.011718 194.109375 6.574218 49.515625 45.714843 88.492187 95.238281 95.019531 78.792969 10.390625 145.265625 6.507813 193.199219.085938 50.066406-6.707032 89.308593-46.222656 95.914062-96.304688 6.320312-47.914062 10.042969-114.261718-.269531-192.566406-6.523438-49.542969-45.484375-88.71875-95.019531-95.296875zm0 0" fill="#fdc26b"/><path d="m435.511719 146.75c-6.523438-49.542969-45.484375-88.71875-95.019531-95.292969-37.839844-5.023437-75.679688-7.085937-113.519532-6.230469 26.835938.609376 53.675782 2.667969 80.511719 6.230469 49.535156 6.574219 88.496094 45.75 95.019531 95.292969 10.3125 78.304688 6.589844 144.652344.269532 192.566406-6.605469 50.082032-45.847657 89.601563-95.914063 96.304688-22.507813 3.015625-49.105469 5.472656-79.148437 6.152344 43.796874.972656 81.71875-2.074219 112.15625-6.152344 50.066406-6.703125 89.308593-46.222656 95.914062-96.304688 6.320312-47.914062 10.042969-114.261718-.269531-192.566406zm0 0" fill="#fcb54c"/><path d="m339.867188 435.621094c-47.933594 6.421875-114.40625 10.304687-193.203126-.082032-23.652343-3.117187-44.929687-13.65625-61.429687-29.191406 12.242187 37.046875 40.960937 64.351563 75.679687 69.714844 67.195313 10.386719 123.886719 6.507812 164.765626.085938 34.90625-5.480469 63.632812-32.902344 76.035156-70.089844-16.582032 15.699218-37.980469 26.367187-61.847656 29.5625zm0 0" fill="#e5646e"/><path d="m349.699219 433.839844c-14.949219 22.625-37.117188 38.308594-62.582031 42.308594-17.894532 2.8125-38.820313 5.136718-62.332032 5.988281 39.574219 1.417969 73.730469-1.722657 100.894532-5.988281 34.90625-5.480469 63.636718-32.902344 76.039062-70.089844-14.273438 13.511718-32.113281 23.277344-52.019531 27.78125zm0 0" fill="#e04955"/><path d="m266.3125 481.660156c0 12.613282-10.226562 22.839844-22.839844 22.839844-12.617187 0-22.839844-10.226562-22.839844-22.839844 0-12.613281 10.222657-22.839844 22.839844-22.839844 12.613282 0 22.839844 10.226563 22.839844 22.839844zm0 0" fill="#fdc26b"/><path d="m258.320312 305.527344 19.980469-26.71875c9.144531-12.226563.421875-29.644532-14.847656-29.644532h-39.964844c-15.265625 0-23.992187 17.417969-14.847656 29.644532l19.984375 26.71875c7.414062 9.914062 22.277344 9.914062 29.695312 0zm0 0" fill="#3f4a4a"/><path d="m243.472656 312.964844c0 18.8125-14.46875 34.242187-32.882812 35.792968l-.128906.136719v9.292969c0 18.230469 14.777343 33.007812 33.011718 33.007812 18.226563 0 33.007813-14.777343 33.007813-33.007812v-9.292969l-.128907-.136719c-18.414062-1.550781-32.878906-16.980468-32.878906-35.792968zm0 0" fill="#ffc7e7"/><g fill="#fc9842"><path d="m262.859375 45.28125v84.039062c0 10.707032-8.679687 19.386719-19.386719 19.386719-10.707031 0-19.386718-8.679687-19.386718-19.386719v-84.039062c12.921874-.351562 25.847656-.351562 38.773437 0zm0 0"/><path d="m199.457031 46.339844v40.0625c0 10.710937-8.679687 19.386718-19.386719 19.386718-10.699218 0-19.378906-8.679687-19.378906-19.386718v-36.6875c12.925782-1.46875 25.847656-2.597656 38.765625-3.375zm0 0"/><path d="m326.25 49.714844v36.6875c0 10.710937-8.679688 19.386718-19.378906 19.386718-10.707032 0-19.386719-8.679687-19.386719-19.386718v-40.0625c12.925781.777344 25.851563 1.90625 38.765625 3.375zm0 0"/></g><path d="m243.472656 398.695312c22.335938 0 40.507813-18.171874 40.507813-40.507812v-2.035156c21.804687-2.292969 38.855469-20.789063 38.855469-43.191406 0-4.140626-3.355469-7.5-7.5-7.5-4.144532 0-7.5 3.359374-7.5 7.5 0 15.679687-12.753907 28.433593-28.433594 28.433593-13.371094 0-24.839844-9.460937-27.734375-22.246093 4.988281-1.636719 9.394531-4.769532 12.65625-9.128907l19.984375-26.71875c5.9375-7.945312 6.871094-18.390625 2.429687-27.257812-4.441406-8.871094-13.367187-14.382813-23.285156-14.382813h-39.964844c-9.921875 0-18.84375 5.511719-23.285156 14.382813-4.441406 8.867187-3.511719 19.3125 2.429687 27.257812l19.984376 26.71875c3.261718 4.363281 7.667968 7.492188 12.65625 9.128907-2.679688 11.828124-12.835938 21.085937-25.3125 22.136718-.011719 0-.019532 0-.027344 0-.789063.066406-1.585938.109375-2.394532.109375-15.679687 0-28.433593-12.753906-28.433593-28.433593 0-4.140626-3.359375-7.5-7.5-7.5-4.144531 0-7.5 3.359374-7.5 7.5 0 22.402343 17.050781 40.898437 38.855469 43.191406v2.035156c0 22.335938 18.171874 40.507812 40.511718 40.507812zm0-15c-14.066406 0-25.511718-11.441406-25.511718-25.507812v-3.066406c10.539062-2.605469 19.570312-9.0625 25.511718-17.789063 5.9375 8.726563 14.96875 15.183594 25.507813 17.789063v3.066406c0 14.066406-11.445313 25.507812-25.507813 25.507812zm-28.828125-109.378906c-2.554687-3.417968-2.941406-7.738281-1.027343-11.558594 1.910156-3.816406 5.601562-6.097656 9.871093-6.097656h39.964844c4.269531 0 7.960937 2.28125 9.871094 6.097656 1.914062 3.820313 1.527343 8.140626-1.027344 11.558594l-19.984375 26.71875c-2.101562 2.8125-5.324219 4.425782-8.839844 4.425782s-6.738281-1.613282-8.84375-4.429688zm0 0"/><path d="m478.941406 276.515625h-30.1875c.800782-18.574219.910156-37.234375.3125-55.9375l22.292969-11.628906c3.671875-1.917969 5.097656-6.445313 3.179687-10.121094-1.914062-3.671875-6.445312-5.09375-10.117187-3.179687l-16.078125 8.386718c-1.050781-19.40625-2.835938-38.84375-5.394531-58.265625-.988281-7.515625-2.703125-14.796875-5.027344-21.796875 22.675781-11.640625 37.46875-35.378906 37.46875-61.203125v-55.269531c0-4.140625-3.355469-7.5-7.5-7.5h-55.265625c-29.179688 0-54.757812 18.222656-64.554688 45.109375-46.34375-8.851563-154.027343-10.507813-209.199218 0-9.796875-26.886719-35.375-45.109375-64.550782-45.109375h-55.269531c-4.144531 0-7.5 3.359375-7.5 7.5v24.894531c0 4.140625 3.355469 7.5 7.5 7.5s7.5-3.359375 7.5-7.5v-17.394531h47.769531c22.304688 0 41.929688 13.613281 49.949219 33.863281-30.390625 9.945313-55.769531 32.144531-69.683593 61.089844-17.015626-9.320313-28.035157-27.484375-28.035157-47.183594v-5.128906c0-4.144531-3.355469-7.5-7.5-7.5s-7.5 3.355469-7.5 7.5v5.128906c0 25.792969 14.773438 49.523438 37.417969 61.175781-2.285156 6.898438-3.976562 14.074219-4.960938 21.472657-2.585937 19.472656-4.382812 39.027343-5.421874 58.613281l-16.066407-8.382812c-3.675781-1.914063-8.203125-.492188-10.117187 3.183593-1.917969 3.671875-.492188 8.203125 3.179687 10.117188l22.304688 11.636719c-.574219 18.640624-.4375 37.296874.390625 55.929687h-30.277344c-4.144531 0-7.5 3.359375-7.5 7.5 0 4.144531 3.355469 7.5 7.5 7.5h31.078125c1.355469 20.980469 3.765625 42.574219 5.3125 52.542969l-28.808594 15.027344c-3.671875 1.914062-5.097656 6.445312-3.179687 10.117187 1.335937 2.566406 3.949218 4.03125 6.652344 4.03125 1.171874 0 2.355468-.273437 3.464843-.851563l25.253907-13.171874c5.800781 19.71875 16.601562 37.28125 30.949218 51.242187 13.667969 39.472656 44.570313 67.386719 81.046875 73.023437 17.996094 2.78125 36.230469 4.683594 54.296875 5.679688 3.347656 13.113281 15.261719 22.84375 29.40625 22.84375 14.125 0 26.027344-9.703125 29.390625-22.796875 18.132813-.972656 36.261719-2.863281 53.980469-5.644531 36.5-5.734375 67.515625-33.753906 81.351562-73.316406 3.582032-3.503907 6.964844-7.246094 10.128907-11.226563 2.574219-3.242187 2.03125-7.960937-1.210938-10.539063-3.246093-2.574218-7.960937-2.03125-10.539062 1.210938-3.070313 3.871094-6.386719 7.488281-9.910157 10.84375-.03125.027344-.070312.050781-.101562.082031-15.441406 14.617188-35.09375 24.496094-57.691406 27.574219-47.191406 6.324219-95.304688 7.867188-143.566406 4.644531-40.964844-2.738281-74.867188-4.019531-104.417969-31.488281-14.082031-13.089844-24.5-30.058594-29.535157-49.210938l55.042969-28.710937c3.671875-1.917969 5.097657-6.449219 3.183594-10.121094-1.917969-3.671875-6.445313-5.09375-10.117187-3.179687l-50.945313 26.570312c-1.933594-15.019531-3.414063-30.082031-4.410156-45.175781h58.820312c4.144531 0 7.5-3.359375 7.5-7.5s-3.355469-7.5-7.5-7.5h-59.636719c-.726562-16.058594-.921874-32.136719-.589843-48.207031l56.757812 29.601562c1.105469.578125 2.292969.855469 3.460938.855469 2.707031 0 5.320312-1.46875 6.65625-4.035156 1.914062-3.671875.492187-8.203125-3.179688-10.117188l-63.15625-32.941406c.941407-21.480469 2.804688-42.929687 5.640625-64.277344 6.109375-46.015625 42.5-82.382812 88.488282-88.492187 1.9375-.257813 3.882812-.480469 5.824218-.722656v28.226562c0 14.824219 12.054688 26.886719 26.875 26.886719 14.828125 0 26.886719-12.0625 26.886719-26.886719v-32.941406c3.210937-.160156 6.417969-.285156 9.628906-.402344v76.257812c0 14.824219 12.0625 26.886719 26.886719 26.886719 14.828125 0 26.890625-12.0625 26.890625-26.886719v-76.261718c3.207031.121094 6.417969.246094 9.625.40625v32.9375c0 14.828125 12.0625 26.886718 26.886719 26.886718 14.820312 0 26.878906-12.058593 26.878906-26.886718v-28.226563c17.859375 2.222657 30.683594 5.265625 47.441406 15.96875 25.421875 16.25 42.855469 42.957031 46.886719 73.585938 2.804687 21.316406 4.664063 42.652343 5.621094 63.941406l-63.152344 32.941406c-3.671875 1.914063-5.097656 6.445313-3.179687 10.117188 1.335937 2.566406 3.949218 4.03125 6.652343 4.03125 1.171875 0 2.355469-.273438 3.464844-.851563l56.773437-29.613281c.359376 16.121094.1875 32.203125-.515624 48.21875h-59.726563c-4.144531 0-7.5 3.355469-7.5 7.5 0 4.140625 3.355469 7.5 7.5 7.5h58.921875c-.984375 15.15625-2.457031 30.238281-4.398438 45.234375l-51.054687-26.628906c-3.675781-1.917969-8.207031-.492188-10.121094 3.179687-1.914062 3.671875-.488281 8.203125 3.183594 10.121094l55.007813 28.6875c-1.585938 5.820313-3.660157 11.511719-6.238282 17.011719-1.761718 3.75-.148437 8.214844 3.601563 9.976562 3.753906 1.757813 8.214843.144532 9.976562-3.605468 2.484375-5.292969 4.554688-10.738282 6.234375-16.300782l25.292969 13.191406c1.105469.578126 2.292969.851563 3.460937.851563 2.707032 0 5.316407-1.46875 6.65625-4.03125 1.914063-3.671875.488282-8.203125-3.183593-10.117187l-28.71875-14.980469c.210937-1.265625.410156-2.53125.578125-3.804688 2.132812-16.167969 3.714844-32.4375 4.753906-48.785156h30.972656c4.140625 0 7.5-3.359375 7.5-7.5s-3.355468-7.5-7.5-7.5zm-235.46875 220.484375c-9.292968 0-16.664062-8.316406-15.125-17.800781 2.347656-14.480469 22.296875-17.960938 28.941406-4.15625 4.917969 10.234375-2.632812 21.957031-13.816406 21.957031zm81.042969-28.261719c-16.945313 2.664063-34.285156 4.492188-51.632813 5.449219-3.199218-12.714844-14.542968-22.199219-27.972656-22.832031-14.65625-.683594-27.335937 9.144531-30.832031 22.757812 0 .007813-.003906.019531-.003906.027344-17.3125-.980469-34.773438-2.824219-52.015625-5.488281-23.046875-3.5625-43.554688-17.839844-57.417969-39.015625 9.921875 5.410156 20.375 9.257812 31.371094 11.648437 27.453125 5.941406 100.730469 11.414063 169.757812 5.589844 33.144531-2.796875 53.457031-4.796875 76.34375-17.304688-13.96875 21.21875-34.539062 35.546876-57.597656 39.167969zm-132.558594-382.335937c0 6.558594-5.332031 11.886718-11.886719 11.886718-6.550781 0-11.878906-5.332031-11.878906-11.886718v-29.941406c8.050782-.835938 13.84375-1.371094 23.765625-2.074219zm63.402344 42.917968c0 6.554688-5.332031 11.886719-11.886719 11.886719-6.558594 0-11.890625-5.335937-11.890625-11.886719v-76.675781c7.925781-.128906 15.851563-.128906 23.777344 0zm63.390625-42.917968c0 6.558594-5.328125 11.886718-11.878906 11.886718-6.554688 0-11.886719-5.332031-11.886719-11.886718v-32.015625c6.949219.492187 14.273437 1.089843 23.765625 2.070312zm43.921875-37.53125c8.015625-20.253906 27.644531-33.871094 49.949219-33.871094h47.769531v47.769531c0 19.730469-11.042969 37.910157-28.09375 47.21875-13.441406-27.949219-38.242187-50.808593-69.625-61.117187zm0 0"/><path d="m325.796875 211.773438c-8.378906 0-15.167969-6.792969-15.167969-15.167969v-13.546875c0-8.375 6.792969-15.167969 15.167969-15.167969 8.378906 0 15.167969 6.792969 15.167969 15.167969v13.546875c.003906 8.375-6.789063 15.167969-15.167969 15.167969zm0 0" fill="#3f4a4a"/><path d="m161.144531 211.773438c-8.378906 0-15.167969-6.792969-15.167969-15.167969v-13.546875c0-8.375 6.792969-15.167969 15.167969-15.167969 8.378907 0 15.167969 6.792969 15.167969 15.167969v13.546875c0 8.375-6.789062 15.167969-15.167969 15.167969zm0 0" fill="#3f4a4a"/><path d="m325.796875 219.273438c-12.5 0-22.667969-10.167969-22.667969-22.667969v-13.546875c0-12.5 10.167969-22.667969 22.667969-22.667969s22.667969 10.167969 22.667969 22.667969v13.546875c0 12.5-10.167969 22.667969-22.667969 22.667969zm0-43.882813c-4.230469 0-7.667969 3.441406-7.667969 7.667969v13.546875c0 4.226562 3.4375 7.667969 7.667969 7.667969s7.667969-3.441407 7.667969-7.667969v-13.546875c0-4.226563-3.4375-7.667969-7.667969-7.667969zm0 0"/><path d="m161.144531 219.273438c-12.5 0-22.667969-10.167969-22.667969-22.667969v-13.546875c0-12.5 10.167969-22.667969 22.667969-22.667969s22.671875 10.167969 22.671875 22.667969v13.546875c0 12.5-10.171875 22.667969-22.671875 22.667969zm0-43.882813c-4.230469 0-7.667969 3.441406-7.667969 7.667969v13.546875c0 4.226562 3.4375 7.667969 7.667969 7.667969s7.671875-3.441407 7.671875-7.667969v-13.546875c0-4.226563-3.441406-7.667969-7.671875-7.667969zm0 0"/></svg>
